<svg id="Capa_1" enable-background="new 0 0 512.001 512.001" height="512" viewBox="0 0 512.001 512.001" width="512" xmlns="http://www.w3.org/2000/svg"><g><g><path d="m413.81 414.185-84.486-24.849c-10.235-3.01-17.263-12.403-17.263-23.071v-46.135h-112.33l.104 46.135c0 10.668-7.028 20.061-17.263 23.071l-84.486 24.849c-20.469 6.02-34.525 24.806-34.525 46.142v20.125h384.774v-20.125c.001-21.336-14.056-40.121-34.525-46.142z" fill="#ffd18d"/><path d="m199.732 320.13.104 46.135c0 10.668-7.028 20.061-17.263 23.071l-7.673 2.257 6.783 23.053 7.674-2.257c18.09-5.321 30.653-19.015 33.759-36.031.524-2.872 2.086-5.451 4.385-7.251 2.621-2.051 5.974-2.897 9.263-2.387 6.371.988 12.792 1.49 19.185 1.49 19.378 0 38.687-4.475 56.113-12.967v-35.113z" fill="#fbbd80"/><path d="m413.81 414.185-84.486-24.849c-2.485-.731-4.772-1.852-6.824-3.263l-66.551 30.25-66.551-30.25c-2.052 1.411-4.339 2.532-6.825 3.263l-84.486 24.849c-20.469 6.02-34.525 24.806-34.525 46.142l24.048 44.174h360.726v-44.173c0-21.336-14.057-40.122-34.526-46.143z" fill="#91ccff"/><path d="m87.61 460.326c0-10.592 7.1-20.079 17.261-23.066l92.178-27.113s-13.245-17.872-14.476-20.811l-84.486 24.849c-20.469 6.02-34.525 24.806-34.525 46.142v44.174h24.048z" fill="#77b3ec"/><path d="m408.255 264.017h-32.065v-64.129h32.065c8.854 0 16.032 7.178 16.032 16.032v32.065c0 8.854-7.178 16.032-16.032 16.032z" fill="#91ccff"/><path d="m255.949 344.179v-2.679c-57.553 0-104.21-43.977-104.21-101.531v-128.258h208.419l8.016 80.161-8.016 48.097c0 57.553-46.656 104.21-104.209 104.21z" fill="#ffe09c"/><path d="m151.739 111.711v128.258c0 57.553 46.656 104.21 104.21 104.21 12.572 0 24.57-2.34 35.73-6.42l-18.469-2.86c-47.165-7.304-81.39-47.228-81.39-94.929v-88.177c0-4.419 3.593-8.016 8.016-8.016h96.194c13.261 0 24.048-10.787 24.048-24.048v-8.016h-168.339z" fill="#ffd18d"/><path d="m207.852 312.114h-8.016c-8.854 0-16.032 7.178-16.032 16.032 0 8.854 7.178 16.032 16.032 16.032h8.016c8.854 0 16.032-7.178 16.032-16.032 0-8.854-7.178-16.032-16.032-16.032z" fill="#615260"/><path d="m103.642 264.017h32.065v-64.129h-32.065c-8.854 0-16.032 7.178-16.032 16.032v32.065c0 8.854 7.178 16.032 16.032 16.032z" fill="#77b3ec"/><path d="m143.723 272.033h-16.032c-4.427 0-8.016-3.589-8.016-8.016v-64.129c0-4.427 3.589-8.016 8.016-8.016h16.032c4.427 0 8.016 3.589 8.016 8.016v64.129c0 4.428-3.589 8.016-8.016 8.016z" fill="#615260"/><path d="m384.207 272.033h-16.032c-4.427 0-8.016-3.589-8.016-8.016v-64.129c0-4.427 3.589-8.016 8.016-8.016h16.032c4.427 0 8.016 3.589 8.016 8.016v64.129c0 4.428-3.589 8.016-8.016 8.016z" fill="#615260"/><path d="m190.113 372.433 65.836 43.89-35.95 29.959c-6.735 5.613-16.73 4.774-22.436-1.883l-33.622-39.226c-2.445-2.853-2.581-7.021-.327-10.026l15.64-20.854c2.552-3.403 7.319-4.22 10.859-1.86z" fill="#b8ddff"/><path d="m321.784 372.433-65.836 43.89 35.95 29.959c6.735 5.613 16.73 4.774 22.436-1.883l33.622-39.226c2.445-2.853 2.581-7.021.327-10.026l-15.64-20.854c-2.552-3.403-7.319-4.22-10.859-1.86z" fill="#b8ddff"/><path d="m292.82 13.921-20.839 41.677-16.131-21.508c-3.37-4.493-10.075-4.17-13.164.52-6.138 9.317-18.748 21.111-43.23 20.988-35.527-.179-63.749 30.158-63.749 65.685v70.59h16.032c8.854 0 16.032-7.178 16.032-16.032v-32.065c0-13.282 10.767-24.048 24.048-24.048h128.258c13.282 0 24.048 10.767 24.048 24.048v32.065c0 8.854 7.178 16.032 16.032 16.032h16.032v-80.161c0-65.64-53.749-93.655-73.222-101.651-3.866-1.589-8.278.121-10.147 3.86z" fill="#d48c64"/><path d="m296.793 83.335 27.886-61.915c-8.581-5.476-16.422-9.19-21.711-11.362-3.867-1.588-8.279.123-10.148 3.862l-20.839 41.677-16.131-21.508c-3.37-4.493-10.075-4.17-13.164.52-6.138 9.317-18.749 21.111-43.23 20.988-35.528-.179-63.749 30.157-63.749 65.685v70.59h16.032c8.854 0 16.032-7.178 16.032-16.032v-32.065c0-13.282 10.767-24.048 24.048-24.048h48.097c24.434 0 46.638-14.207 56.877-36.392z" fill="#c6805d"/></g><g><path d="m207.904 208.421c-4.142 0-7.5 3.358-7.5 7.5v8.016c0 4.142 3.358 7.5 7.5 7.5s7.5-3.358 7.5-7.5v-8.016c0-4.142-3.358-7.5-7.5-7.5z"/><path d="m304.097 208.421c-4.142 0-7.5 3.358-7.5 7.5v8.016c0 4.142 3.358 7.5 7.5 7.5s7.5-3.358 7.5-7.5v-8.016c0-4.142-3.358-7.5-7.5-7.5z"/><path d="m256.001 287.55c11.897 0 22.857-3.805 29.316-10.177 2.948-2.909 2.98-7.658.071-10.606s-7.658-2.981-10.606-.071c-2.737 2.701-9.299 5.855-18.781 5.855s-16.043-3.154-18.781-5.855c-2.949-2.91-7.698-2.877-10.606.071-2.909 2.949-2.877 7.697.071 10.606 6.459 6.372 17.418 10.177 29.316 10.177z"/><path d="m415.979 406.99-63.496-18.675-13.891-18.521c-4.463-5.951-12.43-7.799-18.979-4.731v-33.4c18.84-13.135 33.463-31.916 41.39-53.874 2.135 1.108 4.552 1.745 7.119 1.745h16.032c5.836 0 10.925-3.242 13.574-8.016h10.475c12.976 0 23.532-10.556 23.532-23.532v-32.064c0-10.354-6.724-19.16-16.032-22.3v-73.894c0-48.843-34.541-91.405-82.215-101.453-18.241-12.724-34.582-17.725-35.356-17.957-3.494-1.048-7.232.568-8.863 3.83l-5.943 11.886h-83.542c-57.177 0-103.693 46.517-103.693 103.694v73.894c-9.309 3.139-16.033 11.946-16.033 22.3v32.064c0 12.976 10.557 23.532 23.533 23.532h8.532v.516c0 35.076 28.537 63.613 63.613 63.613h1.749c2.347 6.961 7.864 12.471 14.829 14.81l.069 14.703c-6.586-3.202-14.671-1.378-19.181 4.635l-13.95 18.6-63.229 18.595c-23.498 6.912-39.909 28.845-39.909 53.338v44.173c0 4.142 3.358 7.5 7.5 7.5s7.5-3.358 7.5-7.5v-44.173c0-17.885 11.983-33.9 29.142-38.947l54.027-15.89 37.534 43.79c4.628 5.399 11.246 8.181 17.901 8.181 5.32 0 10.663-1.778 15.031-5.417l23.649-19.708v72.165c0 4.142 3.358 7.5 7.5 7.5s7.5-3.358 7.5-7.5v-72.165l23.649 19.708c4.368 3.64 9.711 5.417 15.031 5.417 6.655 0 13.273-2.782 17.901-8.181l37.576-43.839 54.192 15.939c17.158 5.047 29.142 21.062 29.142 38.947v44.173c0 4.142 3.358 7.5 7.5 7.5s7.5-3.358 7.5-7.5v-44.173c-.001-24.493-16.412-46.426-39.91-53.338zm-31.308-142.973c0 .285-.231.516-.516.516h-16.032c-.285 0-.516-.231-.516-.516v-64.129c0-.285.231-.516.516-.516h16.032c.285 0 .516.232.516.516zm32.064-48.096v32.064c0 4.705-3.828 8.532-8.532 8.532h-8.532v-49.129h8.532c4.705 0 8.532 3.828 8.532 8.533zm-16.032-96.194v72.661h-2.975c-2.649-4.774-7.738-8.016-13.574-8.016h-.516v-72.661c0-23.886-6.863-45.597-20.071-64.108 22.66 16.286 37.136 42.885 37.136 72.124zm-68.936-84.008c24.466 19.745 36.872 45.312 36.872 75.992v72.661h-.516-8.016c-4.705 0-8.532-3.828-8.532-8.532v-32.064c0-15.498-11.237-28.413-25.99-31.048 2.661-4.09 5.028-8.368 7.078-12.81l10.204-22.11c1.736-3.761.094-8.217-3.667-9.953-3.762-1.736-8.217-.094-9.953 3.667l-10.204 22.109c-3.079 6.669-6.991 12.91-11.65 18.596h-24.251c8.597-6.736 15.671-15.486 20.408-25.749l24.687-53.489c1.176.878 2.353 1.78 3.53 2.73zm-55.941-4.686-5.178 10.356-7.767-10.356zm-163.703 225.484h-8.532c-4.705 0-8.533-3.828-8.533-8.532v-32.064c0-4.705 3.828-8.532 8.533-8.532h8.532zm1.942-64.129h-2.975v-72.661c0-48.906 39.788-88.694 88.693-88.694h36.239c-5.223 7.609-15.813 17.064-36.239 17.064-39.496 0-71.629 32.133-71.629 71.629v64.645h-.516c-5.835.001-10.924 3.243-13.573 8.017zm13.058 71.629v-64.129c0-.285.231-.516.516-.516h16.032c.285 0 .516.232.516.516v64.129c0 .285-.231.516-.516.516h-16.032c-.285 0-.516-.231-.516-.516zm50.361 56.629h-1.749c-24.255 0-44.415-17.856-48.032-41.113h15.968c2.575 0 5-.64 7.14-1.755 5.669 15.736 14.841 30.155 26.97 42.033-.104.276-.202.555-.297.835zm13.768 7.5c0-4.705 3.828-8.532 8.532-8.532h8.016c4.705 0 8.532 3.828 8.532 8.532 0 4.705-3.828 8.532-8.532 8.532h-8.015-.001c-4.705.001-8.532-3.827-8.532-8.532zm23.893 112.375c-3.565 2.97-8.921 2.521-11.94-1.002l-33.892-39.54 15.889-21.185c.164-.219.472-.272.699-.12l57.478 38.319zm40.752-33.211-49.544-33.03c.685-2.606 1.036-5.295 1.036-8.051l-.069-14.551h.481c12.976 0 23.532-10.556 23.532-23.532s-10.557-23.532-23.532-23.532h-8.016c-4.563 0-8.825 1.31-12.436 3.568-17.949-18.058-28.158-42.646-28.16-68.204v-41.843c9.307-3.14 16.032-11.943 16.032-22.296v-32.064c0-9.125 7.423-16.548 16.548-16.548 4.142 0 7.5-3.358 7.5-7.5s-3.358-7.5-7.5-7.5c-17.396 0-31.548 14.153-31.548 31.548v32.064c0 4.705-3.828 8.532-8.532 8.532h-8.016-.516v-64.645c0-31.225 25.404-56.629 56.629-56.629 26.293 0 41.819-12.927 49.629-25.021l16.516 22.021c1.56 2.08 4.089 3.201 6.673 2.97 2.589-.233 4.873-1.791 6.035-4.116l21.05-42.1c3.938 1.604 9.551 4.153 15.878 7.802l-25.633 55.538c-8.982 19.46-28.634 32.035-50.067 32.035h-16.032c-4.142 0-7.5 3.358-7.5 7.5s3.358 7.5 7.5 7.5h96.193c9.125 0 16.549 7.424 16.549 16.548v32.064c0 10.353 6.725 19.156 16.032 22.296v41.817c0 .03-.004.058-.004.088-.039 53.286-43.421 96.638-96.706 96.638-4.142 0-7.5 3.358-7.5 7.5s3.358 7.5 7.5 7.5c17.453 0 33.984-4.03 48.717-11.203v25.789c0 2.692.342 5.332 1.006 7.896zm52.692 32.209c-3.02 3.522-8.376 3.972-11.941 1.002l-28.234-23.528 57.478-38.319c.228-.152.535-.1.7.12l15.889 21.185z"/><path d="m199.888 184.372c-4.142 0-7.5 3.358-7.5 7.5s3.358 7.5 7.5 7.5h15.928c4.142 0 7.5-3.358 7.5-7.5s-3.358-7.5-7.5-7.5z"/><path d="m295.977 199.372h16.136c4.142 0 7.5-3.358 7.5-7.5s-3.358-7.5-7.5-7.5h-16.136c-4.142 0-7.5 3.358-7.5 7.5s3.358 7.5 7.5 7.5z"/></g></g></svg>