<svg id="_38-People" height="512" viewBox="0 0 512 512" width="512" xmlns="http://www.w3.org/2000/svg" data-name="38-People"><g fill="#365c7f"><path d="m408.432 501.034-3.898-23.475c-3.533-21.275-15.113-40.346-31.77-52.32-3.093-2.345-7.979-.817-9.165 2.889l-25.182 71.906c-.643 1.836-.355 3.869.77 5.455s2.949 2.528 4.894 2.528h58.433c3.594.083 6.595-3.447 5.919-6.983z"/><path d="m148.4 428.128c-1.187-3.694-6.07-5.245-9.165-2.889-16.655 11.973-28.234 31.043-31.769 52.32l-3.898 23.475c-.671 3.532 2.32 7.071 5.919 6.983h58.432c1.944 0 3.769-.942 4.894-2.528s1.412-3.619.77-5.455l-25.182-71.906z"/></g><path d="m138.053 508.018h29.866c1.944 0 3.769-.942 4.894-2.528s1.412-3.619.77-5.455l-25.182-71.906c-1.187-3.694-6.07-5.245-9.165-2.889-8.8 6.326-16.164 14.646-21.692 24.214z" fill="#224463"/><path d="m373.766 508.018 20.578-58.76c-5.515-9.484-12.839-17.735-21.58-24.019-3.093-2.345-7.979-.817-9.165 2.889l-25.182 71.906c-.643 1.836-.355 3.869.77 5.455s2.949 2.528 4.894 2.528h29.686z" fill="#224463"/><path d="m393.141 365.721c-.961-.586-23.995-14.457-64.042-23.844-1.11-.26-2.271-.199-3.346.177l-40.345 13.775c-2.43.829-4.062 3.111-4.062 5.679v41.303c0 3.313 2.687 6 6 6h10.936c5.335 0 10.672.508 15.931 1.513l-21.521 85.694h-73.383l-21.529-85.729c8.525-1.567 17.852-1.6 26.791-1.479 3.251.114 6.15-2.747 6.084-5.999v-41.303c0-2.567-1.633-4.85-4.062-5.679l-39.956-13.633c-1.197-.49-2.536-.657-3.804-.345-40.114 9.386-63.19 23.282-64.153 23.869-2.417 1.474-3.476 4.435-2.54 7.106l45.938 131.174c.843 2.405 3.114 4.017 5.663 4.017 50.962 0 125.38.006 176.341 0 2.549 0 4.82-1.611 5.663-4.017l45.938-131.174c.936-2.672-.123-5.633-2.54-7.106z" fill="#2a4d74"/><path d="m326.795 508.019 23.823-94.864c3.709-14.763-4.387-29.92-18.293-35.297l4.659-1.59c13.265-4.526 25.192-11.638 35.311-20.641-10.665-4.416-25.208-9.534-43.197-13.751-1.11-.26-2.271-.199-3.346.177l-40.345 13.775c-2.43.829-4.062 3.111-4.062 5.679v41.303c0 3.313 2.687 6 6 6h10.936c5.335 0 10.672.508 15.931 1.513l-21.521 85.694h-73.383l-21.529-85.729c8.525-1.567 17.852-1.6 26.791-1.479 3.251.114 6.15-2.747 6.084-5.999v-41.303c0-2.567-1.633-4.85-4.062-5.679l-39.956-13.633c-1.197-.49-2.536-.657-3.804-.345-17.971 4.205-32.509 9.312-43.185 13.726 10.131 9.026 22.079 16.158 35.369 20.692l4.66 1.59c-13.889 5.375-21.994 20.568-18.296 35.293l23.823 94.866c43.469 0 98.154.004 141.591 0z" fill="#193b59"/><path d="m297.344 396.811h-3.998v-35.304c.105-3.987-4.197-7.071-7.938-5.679l-9.609 3.278c-12.768 4.356-26.83 4.357-39.598 0l-9.609-3.278c-3.734-1.391-8.051 1.69-7.938 5.679v35.304h-4.178c-3.313 0-6 2.687-6 6 0 26.155 21.278 47.435 47.434 47.435s47.434-21.279 47.434-47.435c0-3.313-2.687-6-6-6z" fill="#f7bfa9"/><g><path d="m151.138 154.103c-25.466-6.486-38.872-19.486-39.848-38.639-.166-3.251-2.881-5.726-6.145-5.693-3.254.083-5.848 2.744-5.848 5.998v103.696c-.002.793.162 1.581.461 2.315.987 2.648 3.693 4.256 6.515 3.837 1.161-.155 2.437-.182 3.539-.152 7.242 0 14.1 3.168 18.815 8.692 3.581 4.283 10.79 1.506 10.561-4.069 0 0-.143-4.949-.143-4.949-.631-21.887 4.83-43.396 15.794-62.201 2.032-3.283.071-7.984-3.702-8.836z" fill="#688e96"/><path d="m412.547 97.405c-1.413-6.912-11.348-6.536-11.955.648-1.797 31.472-17.808 54.18-38.936 55.221-4.477.098-7.243 5.481-4.789 9.177 12.09 20.331 17.354 43.975 15.944 67.638-.073 2.544 1.466 4.857 3.84 5.771 2.344.909 5.064.244 6.721-1.703 5.461-6.48 13.922-9.522 22.275-8.553 1.984.292 3.978-.45 5.326-1.926 1.107-1.123 1.729-2.637 1.729-4.214v-120.701c0-.457-.053-.913-.155-1.358z" fill="#688e96"/><g fill="#49797f"><path d="m151.138 154.103c-25.466-6.486-38.872-19.486-39.848-38.639-.166-3.251-2.881-5.726-6.145-5.693-3.254.083-5.848 2.744-5.848 5.998v51.802c11.732 10.122 26.534 17.408 44.249 21.821 2.647-9.214 6.424-18.101 11.293-26.452 2.032-3.283.071-7.984-3.702-8.836z"/><path d="m412.702 164.563v-65.799c0-.457-.053-.913-.155-1.358-1.413-6.912-11.348-6.536-11.955.648-1.797 31.472-17.808 54.18-38.936 55.221-4.477.098-7.243 5.481-4.789 9.177 4.925 8.281 8.697 17.119 11.367 26.277 17.203-1.94 32.565-10.296 44.468-24.165z"/></g></g><g fill="#f7bfa9"><path d="m403.979 213.465c-11.346-.441-22.356 4.199-29.733 12.901-.889 1.041-1.395 2.354-1.434 3.723l-1.286 44.571c-.162 3.283 2.709 6.241 5.997 6.173h8.451c22.993 0 41.699-18.706 41.699-41.698.954-13.721-9.833-25.73-23.694-25.67z"/><path d="m137.755 226.366c-7.377-8.702-18.388-13.343-29.733-12.901-13.859-.059-24.651 11.947-23.694 25.67 0 22.992 18.706 41.698 41.699 41.698h8.451c3.286.065 6.161-2.887 5.997-6.173l-1.286-44.571c-.039-1.368-.545-2.682-1.434-3.723z"/></g><path d="m396.943 225.831c.115-3.997.041-7.98-.178-11.946-8.682 1.328-16.724 5.643-22.52 12.481-.889 1.041-1.395 2.354-1.434 3.723l-1.286 44.571c-.162 3.283 2.709 6.241 5.997 6.173h8.451c3.238 0 6.386-.383 9.414-1.085z" fill="#dd9b90"/><path d="m137.755 226.366c-5.796-6.837-13.838-11.153-22.52-12.481-.22 3.966-.294 7.95-.179 11.946l1.556 53.917c3.028.702 6.176 1.085 9.414 1.085h8.451c3.286.065 6.161-2.887 5.997-6.173l-1.286-44.571c-.039-1.368-.545-2.682-1.434-3.723z" fill="#dd9b90"/><g fill="#c97d73"><path d="m407.674 240.247c-.257-3.306-3.168-5.765-6.446-5.519l-3.8.295c-13.16 1.019-23.782 11.716-24.708 24.883-.232 3.306 2.259 6.174 5.564 6.406 3.264.241 6.184-2.251 6.406-5.564.512-7.281 6.386-13.197 13.664-13.76l3.801-.295c3.304-.257 5.774-3.143 5.519-6.446z"/><path d="m114.573 235.024-3.801-.295c-3.304-.244-6.19 2.215-6.446 5.519s2.215 6.189 5.519 6.446l3.802.295c7.277.562 13.151 6.479 13.663 13.76.223 3.162 2.856 5.579 5.979 5.579 3.461.015 6.25-2.966 5.991-6.421-.926-13.167-11.548-23.864-24.707-24.883z"/></g><path d="m285.408 355.828-9.609 3.278c-12.768 4.356-26.83 4.357-39.598 0l-9.609-3.278c-3.734-1.391-8.051 1.69-7.938 5.679v16.972l9.797 3.343c8.85 3.019 18.118 4.55 27.549 4.55 9.436 0 18.704-1.532 27.548-4.55l9.797-3.343v-16.972c.105-3.987-4.197-7.071-7.938-5.679z" fill="#dd9b90"/><path d="m367.12 156.214c-1.134-1.918-3.248-3.044-5.461-2.939-8.031.394-16.444-2.189-25.033-7.686-5.179-3.313-11.444 2.52-8.505 7.922l1.651 3.034c-10.989 1.547-33.224 1.718-58.01-14.808-4.396-3.018-10.433 1.131-9.18 6.319l1.944 8.573c-10.671 2.549-37.309 4.945-61.911-24.689-4.001-4.811-11.852-.939-10.466 5.168l4.853 21.263c-9.76.327-28.398.181-45.865-4.269-2.596-.658-5.316.478-6.665 2.793-12.093 20.742-18.117 44.461-17.421 68.59l1.577 54.658c.957 33.188 22.713 62.689 54.137 73.411l49.561 16.909c7.634 2.604 15.652 3.907 23.674 3.907 8.02 0 16.042-1.303 23.674-3.907l49.561-16.909c31.424-10.722 53.18-40.224 54.137-73.411l1.577-54.658c.704-24.4-5.461-48.354-17.828-69.271z" fill="#ffd5ae"/><path d="m367.12 156.214c-.235-.398-.521-.753-.833-1.079 6.183 15.943 9.161 33.031 8.661 50.35l-1.577 54.658c-.957 33.188-22.713 62.689-54.137 73.411l-49.561 16.909c-7.632 2.604-15.654 3.906-23.674 3.907-8.021 0-16.04-1.303-23.674-3.907l-49.561-16.909c-16.574-5.655-30.454-16.538-40.016-30.428 7.816 23.245 26.113 42.272 50.016 50.428l49.561 16.909c7.634 2.604 15.652 3.907 23.674 3.907 8.02 0 16.042-1.303 23.674-3.907l49.561-16.909c31.424-10.722 53.18-40.224 54.137-73.411l1.577-54.658c.704-24.4-5.461-48.354-17.828-69.271z" fill="#f7bfa9"/><path d="m323.061 400.046c-8.353-2.214-16.978-3.302-25.764-3.235-3.295.025-5.953 2.704-5.953 6 0 19.539-15.896 35.435-35.434 35.435s-35.434-15.896-35.434-35.435c.066-3.259-2.812-6.073-6.065-6-9.526.104-17.871 1.166-25.51 3.246-3.152.858-5.039 4.081-4.243 7.25l24.151 96.172c.67 2.668 3.068 4.539 5.819 4.539h82.742c2.751 0 5.149-1.871 5.819-4.539l24.151-96.172c.8-3.184-1.108-6.419-4.281-7.261z" fill="#4acd88"/><path d="m228.668 484.018-8.47-33.727c9.948 7.502 22.32 11.954 35.712 11.954 13.491 0 25.947-4.519 35.935-12.122l-8.513 33.895z" fill="#63ea83"/><path d="m281.914 305.907h-52.009c-3.313 0-6 2.687-6 6 1.73 37.74 62.288 37.724 64.009 0 0-3.313-2.687-6-6-6z" fill="#da387d"/><g fill="#c97d73"><path d="m208.299 233.859c-3.313 0-6 2.687-6 6v14.363c.273 7.939 11.725 7.944 12 0v-14.363c0-3.313-2.687-6-6-6z"/><path d="m303.701 233.859c-3.313 0-6 2.687-6 6v14.363c.273 7.939 11.725 7.944 12 0v-14.363c0-3.313-2.687-6-6-6z"/><path d="m187.46 216.8c-5.421 5.808 2.675 13.908 8.484 8.484 3.99-3.988 10.479-3.988 14.47 0 2.342 2.344 6.142 2.344 8.484 0 2.344-2.343 2.344-6.142 0-8.484-8.665-8.668-22.771-8.668-31.438 0z"/><path d="m324.54 216.8c-8.666-8.668-22.772-8.667-31.438 0-2.344 2.343-2.344 6.142 0 8.484 2.342 2.344 6.143 2.344 8.484 0 3.99-3.987 10.479-3.988 14.47 0 1.171 1.172 2.707 1.758 4.242 1.758 5.216.091 8.041-6.554 4.242-10.242z"/><path d="m250.398 258.095c-7.944.277-7.94 11.725 0 12 6.887.245 6.884 10.164 0 10.407-3.313 0-6 2.687-6 6s2.687 6 6 6c9.485 0 17.203-7.718 17.203-17.203s-7.718-17.204-17.203-17.204z"/></g><path d="m367.12 156.214c-1.134-1.918-3.248-3.044-5.461-2.939-8.031.394-16.444-2.189-25.033-7.686-5.179-3.313-11.444 2.52-8.505 7.922l1.651 3.034c-10.989 1.547-33.224 1.718-58.01-14.808-4.396-3.018-10.433 1.131-9.18 6.319l1.944 8.573c-10.671 2.549-37.309 4.945-61.911-24.689-4.001-4.811-11.852-.939-10.466 5.168l4.853 21.263c-9.76.327-28.398.181-45.865-4.269-2.596-.658-5.316.478-6.665 2.793-5.355 9.186-9.514 18.956-12.433 29.086 16.183 5.63 35.231 8.474 57.016 8.474 5.649 0 11.353-.184 17.436-.563l.24-.016c5.374-.39 10.466-2.23 14.804-5.26 7.775 2.769 15.814 4.489 23.952 5.095 2.25.168 4.536.253 6.795.253 16.672 0 28.541-4.592 30.927-5.593.527-.22 1.045-.454 1.553-.7 11.523 3.659 23.319 5.505 35.246 5.505 15.302 0 25.653-3.097 28.411-4.029.622-.209 1.235-.438 1.839-.687 3.411.474 6.797.712 10.135.712h.009c6.815 0 13.391-.976 19.641-2.863-2.995-10.494-7.314-20.609-12.923-30.096z" fill="#f7bfa9"/><path d="m351.329 42.779c9.291-14.218.425-26.068-18.503-31.692-28.896-8.989-59.851 2.73-73.116 8.914-7.354-12.085-20.269-15.647-39.797-16.011-37.637-.721-73.865 36.627-75.5 73.998-19.099.015-45.534 8.297-45.185 35.09 0 14.607 5.221 26.766 15.521 36.138 24.851 21.641 65.434 22.271 90.249 20.724 3.506-.254 6.149-3.895 5.285-7.309l-1.909-8.365c14.397 11.192 28.492 14.738 38.896 15.513 15.367 1.145 26.216-3.352 26.669-3.543 2.895-1.203 4.299-4.448 3.391-7.415 34.228 17.049 62.151 8.015 63.454 7.574 1.752-.588 3.146-1.964 3.751-3.711 42.302 12.85 68.257-26.046 68.238-70.741 0-33.514-40.593-45.313-61.443-49.163z" fill="#407195"/><path d="m181.945 146.326c-23.111-.863-40.727-6.016-51.231-15.034-5.176-4.791-7.486-10.421-7.486-18.215l-.002-.312c-.045-3.45.979-4.489 1.592-5.109 3.285-3.331 11.351-5.662 19.614-5.668l22.955-.018 1.004-22.934c1.085-24.812 27.017-51.056 50.449-51.056.203 0 .41.002.614.006 17.216.319 19.06 3.35 19.753 4.49l11.169 18.354 19.474-9.077c7.964-3.712 23.8-9.939 40.384-9.939 5.591 0 10.793.736 15.464 2.189l.293.089c.701.208 1.346.42 1.934.631l-16.408 25.11 35.456 6.547c12.21 2.254 23.073 5.969 30.589 10.459 11.212 6.698 11.212 12.588 11.212 15.103.006 14.694-3.574 28.48-9.824 37.834-7.574 11.337-15.758 11.396-18.507 11.396h-.043c-2.725 0-5.715-.489-8.889-1.453l-22.099-6.713-4.136 11.944c-1.566.137-3.333.226-5.268.226-10.776 0-21.535-2.638-31.979-7.839l-50.001-24.906 10.208 33.345c-8.811-.824-57.563-15.999-57.563-15.999z" fill="#588aa8"/></svg>